# xmcd
#
# Track frame offsets:
# 150
# 16477
# 34115
# 48744
# 61725
# 76593
# 94376
# 110962
# 127421
# 140202
# 152666
# 167354
#
# Disc length: 2465 seconds
#
#
# Revision: 0
# Processed by: cddbd v1.5.2PL0 Copyright (c) Steve Scherf et al.
# Submitted via: FreeRIP 2.951 
#
DISCID=a6099f0c
DTITLE=Atomic Kitten - Right Now
DYEAR=2000
DGENRE=Pop
TTITLE0=Right Now
TTITLE1=Bye Now
TTITLE2=Follow Me
TTITLE3=Get Refil
TTITLE4=Cradle
TTITLE5=Turn Me On
TTITLE6=I Want Your Love
TTITLE7=Do What You Want
TTITLE8=Hippy
TTITLE9=See Ya
TTITLE10=Strangers
TTITLE11=Whole Again
EXTD=
EXTT0=
EXTT1=
EXTT2=
EXTT3=
EXTT4=
EXTT5=
EXTT6=
EXTT7=
EXTT8=
EXTT9=
EXTT10=
EXTT11=
PLAYORDER=
